<?xml version="1.0" encoding="UTF-8" standalone="no"?>
<!DOCTYPE svg PUBLIC "-//W3C//DTD SVG 1.1//EN"
 "http://www.w3.org/Graphics/SVG/1.1/DTD/svg11.dtd">
<!-- Generated by graphviz version 2.38.0 (20140413.2041)
 -->
<!-- Title: BeeComplex Pages: 1 -->
<svg width="540pt" height="177pt"
 viewBox="0.00 0.00 540.40 177.20" xmlns="http://www.w3.org/2000/svg" xmlns:xlink="http://www.w3.org/1999/xlink">
<g id="graph0" class="graph" transform="scale(1 1) rotate(0) translate(4 173.198)">
<title>BeeComplex</title>
<polygon fill="white" stroke="none" points="-4,4 -4,-173.198 536.397,-173.198 536.397,4 -4,4"/>
<!-- A -->
<g id="node1" class="node"><title>A</title>
<ellipse fill="#bcd2ee" stroke="black" cx="18" cy="-107.198" rx="18" ry="18"/>
<text text-anchor="middle" x="18" y="-103.498" font-family="Arial" font-size="14.00">A</text>
</g>
<!-- B -->
<g id="node2" class="node"><title>B</title>
<ellipse fill="#bcd2ee" stroke="black" cx="115" cy="-50.1984" rx="18" ry="18"/>
<text text-anchor="middle" x="115" y="-46.4984" font-family="Arial" font-size="14.00">B</text>
</g>
<!-- A&#45;&#45;B -->
<g id="edge1" class="edge"><title>A&#45;&#45;B</title>
<path fill="none" stroke="black" d="M29.6419,-92.8975C35.9795,-85.2435 44.6049,-76.1867 54,-70.1984 67.3333,-61.6999 84.651,-56.4341 97.2519,-53.4532"/>
<text text-anchor="middle" x="66.5" y="-73.9984" font-family="Arial" font-size="14.00">412</text>
</g>
<!-- E -->
<g id="node3" class="node"><title>E</title>
<ellipse fill="#bcd2ee" stroke="black" cx="169" cy="-107.198" rx="18" ry="18"/>
<text text-anchor="middle" x="169" y="-103.498" font-family="Arial" font-size="14.00">E</text>
</g>
<!-- A&#45;&#45;E -->
<g id="edge2" class="edge"><title>A&#45;&#45;E</title>
<path fill="none" stroke="black" d="M36.0922,-107.198C64.6809,-107.198 121.887,-107.198 150.648,-107.198"/>
<text text-anchor="middle" x="66.5" y="-110.998" font-family="Arial" font-size="14.00">400</text>
</g>
<!-- D -->
<g id="node4" class="node"><title>D</title>
<ellipse fill="#bcd2ee" stroke="black" cx="320" cy="-151.198" rx="18" ry="18"/>
<text text-anchor="middle" x="320" y="-147.498" font-family="Arial" font-size="14.00">D</text>
</g>
<!-- A&#45;&#45;D -->
<g id="edge3" class="edge"><title>A&#45;&#45;D</title>
<path fill="none" stroke="black" d="M33.406,-116.725C39.5116,-120.301 46.857,-124.022 54,-126.198 144.179,-153.67 258.913,-153.234 301.803,-151.923"/>
<text text-anchor="middle" x="169" y="-151.998" font-family="Arial" font-size="14.00">316</text>
</g>
<!-- C -->
<g id="node5" class="node"><title>C</title>
<ellipse fill="#bcd2ee" stroke="black" cx="223" cy="-38.1984" rx="18" ry="18"/>
<text text-anchor="middle" x="223" y="-34.4984" font-family="Arial" font-size="14.00">C</text>
</g>
<!-- B&#45;&#45;C -->
<g id="edge4" class="edge"><title>B&#45;&#45;C</title>
<path fill="none" stroke="black" d="M133.031,-48.2704C152.811,-46.031 185.249,-42.3589 205.012,-40.1216"/>
<text text-anchor="middle" x="169" y="-49.9984" font-family="Arial" font-size="14.00">141</text>
</g>
<!-- F -->
<g id="node7" class="node"><title>F</title>
<ellipse fill="#bcd2ee" stroke="black" cx="417" cy="-70.1984" rx="18" ry="18"/>
<text text-anchor="middle" x="417" y="-66.4984" font-family="Arial" font-size="14.00">F</text>
</g>
<!-- E&#45;&#45;F -->
<g id="edge10" class="edge"><title>E&#45;&#45;F</title>
<path fill="none" stroke="black" d="M187.008,-105.11C222.933,-100.625 309.152,-89.481 381,-77.1984 386.986,-76.1751 393.518,-74.9094 399.301,-73.7369"/>
<text text-anchor="middle" x="271.5" y="-98.9984" font-family="Arial" font-size="14.00">200</text>
</g>
<!-- D&#45;&#45;F -->
<g id="edge9" class="edge"><title>D&#45;&#45;F</title>
<path fill="none" stroke="black" d="M337.014,-145.071C349.865,-139.617 367.867,-130.723 381,-119.198 391.844,-109.683 401.167,-96.1874 407.458,-85.768"/>
<text text-anchor="middle" x="368.5" y="-138.998" font-family="Arial" font-size="14.00">142</text>
</g>
<!-- C&#45;&#45;D -->
<g id="edge5" class="edge"><title>C&#45;&#45;D</title>
<path fill="none" stroke="black" d="M240.438,-43.5154C253.712,-48.5426 272.083,-57.2603 284,-70.1984 300.813,-88.452 310.363,-116.04 315.109,-133.839"/>
<text text-anchor="middle" x="271.5" y="-73.9984" font-family="Arial" font-size="14.00">223</text>
</g>
<!-- G -->
<g id="node6" class="node"><title>G</title>
<ellipse fill="#bcd2ee" stroke="black" cx="514.198" cy="-18.1984" rx="18.399" ry="18.399"/>
<text text-anchor="middle" x="514.198" y="-14.4984" font-family="Arial" font-size="14.00">G</text>
</g>
<!-- C&#45;&#45;G -->
<g id="edge6" class="edge"><title>C&#45;&#45;G</title>
<path fill="none" stroke="black" d="M241.225,-37.0072C292.54,-33.4584 444.027,-22.9821 495.698,-19.4086"/>
<text text-anchor="middle" x="368.5" y="-32.9984" font-family="Arial" font-size="14.00">144</text>
</g>
<!-- C&#45;&#45;F -->
<g id="edge7" class="edge"><title>C&#45;&#45;F</title>
<path fill="none" stroke="black" d="M241.039,-41.0382C277.474,-47.1107 362.598,-61.2981 398.999,-67.365"/>
<text text-anchor="middle" x="320" y="-60.9984" font-family="Arial" font-size="14.00">219</text>
</g>
<!-- F&#45;&#45;G -->
<g id="edge8" class="edge"><title>F&#45;&#45;G</title>
<path fill="none" stroke="black" d="M433.295,-61.8437C451.06,-52.1399 480.192,-36.2273 497.941,-26.5324"/>
<text text-anchor="middle" x="465.5" y="-54.9984" font-family="Arial" font-size="14.00">222</text>
</g>
</g>
</svg>
