<?xml version="1.0" encoding="UTF-8" standalone="no"?>
<!DOCTYPE svg PUBLIC "-//W3C//DTD SVG 1.1//EN"
 "http://www.w3.org/Graphics/SVG/1.1/DTD/svg11.dtd">
<!-- Generated by graphviz version 2.38.0 (20140413.2041)
 -->
<!-- Title: Huffman Pages: 1 -->
<svg width="286pt" height="216pt"
 viewBox="0.00 0.00 286.27 216.00" xmlns="http://www.w3.org/2000/svg" xmlns:xlink="http://www.w3.org/1999/xlink">
<g id="graph0" class="graph" transform="scale(0.650602 0.650602) rotate(0) translate(4 328)">
<title>Huffman</title>
<polygon fill="white" stroke="none" points="-4,4 -4,-328 436,-328 436,4 -4,4"/>
<!-- l -->
<g id="node1" class="node"><title>l</title>
<ellipse fill="#bcd2ee" stroke="black" cx="234" cy="-162" rx="18" ry="18"/>
<text text-anchor="middle" x="234" y="-158.3" font-family="Arial" font-size="14.00">l</text>
</g>
<!-- o -->
<g id="node2" class="node"><title>o</title>
<ellipse fill="#bcd2ee" stroke="black" cx="306" cy="-90" rx="18" ry="18"/>
<text text-anchor="middle" x="306" y="-86.3" font-family="Arial" font-size="14.00">o</text>
</g>
<!-- e -->
<g id="node3" class="node"><title>e</title>
<ellipse fill="#bcd2ee" stroke="black" cx="342" cy="-19" rx="18" ry="18"/>
<text text-anchor="middle" x="342" y="-15.3" font-family="Arial" font-size="14.00">e</text>
</g>
<!-- w -->
<g id="node4" class="node"><title>w</title>
<ellipse fill="#bcd2ee" stroke="black" cx="414" cy="-19" rx="18" ry="18"/>
<text text-anchor="middle" x="414" y="-15.3" font-family="Arial" font-size="14.00">w</text>
</g>
<!-- d -->
<g id="node5" class="node"><title>d</title>
<ellipse fill="#bcd2ee" stroke="black" cx="18" cy="-90" rx="18" ry="18"/>
<text text-anchor="middle" x="18" y="-86.3" font-family="Arial" font-size="14.00">d</text>
</g>
<!-- h -->
<g id="node6" class="node"><title>h</title>
<ellipse fill="#bcd2ee" stroke="black" cx="90" cy="-90" rx="18" ry="18"/>
<text text-anchor="middle" x="90" y="-86.3" font-family="Arial" font-size="14.00">h</text>
</g>
<!-- r -->
<g id="node7" class="node"><title>r</title>
<ellipse fill="#bcd2ee" stroke="black" cx="162" cy="-90" rx="18" ry="18"/>
<text text-anchor="middle" x="162" y="-86.3" font-family="Arial" font-size="14.00">r</text>
</g>
<!-- WS -->
<g id="node8" class="node"><title>WS</title>
<ellipse fill="#bcd2ee" stroke="black" cx="234" cy="-90" rx="18" ry="18"/>
<text text-anchor="middle" x="234" y="-86.3" font-family="Arial" font-size="14.00"> </text>
</g>
<!-- root -->
<g id="node9" class="node"><title>root</title>
<ellipse fill="none" stroke="black" cx="200" cy="-305" rx="18" ry="18"/>
</g>
<!-- n1 -->
<g id="node10" class="node"><title>n1</title>
<ellipse fill="none" stroke="black" cx="162" cy="-234" rx="18" ry="18"/>
</g>
<!-- root&#45;&gt;n1 -->
<g id="edge1" class="edge"><title>root&#45;&gt;n1</title>
<path fill="none" stroke="black" d="M191.567,-288.687C186.794,-280.021 180.718,-268.989 175.317,-259.181"/>
<polygon fill="black" stroke="black" points="178.3,-257.342 170.41,-250.271 172.168,-260.718 178.3,-257.342"/>
<text text-anchor="middle" x="189.5" y="-265.3" font-family="Arial" font-size="14.00" fill="red">1</text>
</g>
<!-- n0 -->
<g id="node11" class="node"><title>n0</title>
<ellipse fill="none" stroke="black" cx="234" cy="-234" rx="18" ry="18"/>
</g>
<!-- root&#45;&gt;n0 -->
<g id="edge2" class="edge"><title>root&#45;&gt;n0</title>
<path fill="none" stroke="black" d="M207.715,-288.343C211.888,-279.874 217.138,-269.219 221.847,-259.663"/>
<polygon fill="black" stroke="black" points="225.035,-261.112 226.315,-250.595 218.756,-258.018 225.035,-261.112"/>
<text text-anchor="middle" x="226.5" y="-265.3" font-family="Arial" font-size="14.00" fill="red">0</text>
</g>
<!-- n10 -->
<g id="node14" class="node"><title>n10</title>
<ellipse fill="none" stroke="black" cx="90" cy="-162" rx="18" ry="18"/>
</g>
<!-- n1&#45;&gt;n10 -->
<g id="edge9" class="edge"><title>n1&#45;&gt;n10</title>
<path fill="none" stroke="black" d="M149.459,-220.807C138.515,-210.167 122.448,-194.547 109.774,-182.225"/>
<polygon fill="black" stroke="black" points="112.007,-179.515 102.398,-175.053 107.128,-184.534 112.007,-179.515"/>
<text text-anchor="middle" x="137.5" y="-194.3" font-family="Arial" font-size="14.00" fill="red">0</text>
</g>
<!-- n11 -->
<g id="node15" class="node"><title>n11</title>
<ellipse fill="none" stroke="black" cx="162" cy="-162" rx="18" ry="18"/>
</g>
<!-- n1&#45;&gt;n11 -->
<g id="edge12" class="edge"><title>n1&#45;&gt;n11</title>
<path fill="none" stroke="black" d="M162,-215.697C162,-207.983 162,-198.712 162,-190.112"/>
<polygon fill="black" stroke="black" points="165.5,-190.104 162,-180.104 158.5,-190.104 165.5,-190.104"/>
<text text-anchor="middle" x="166.5" y="-194.3" font-family="Arial" font-size="14.00" fill="red">1</text>
</g>
<!-- n0&#45;&gt;l -->
<g id="edge3" class="edge"><title>n0&#45;&gt;l</title>
<path fill="none" stroke="black" d="M234,-215.697C234,-207.983 234,-198.712 234,-190.112"/>
<polygon fill="black" stroke="black" points="237.5,-190.104 234,-180.104 230.5,-190.104 237.5,-190.104"/>
<text text-anchor="middle" x="238.5" y="-194.3" font-family="Arial" font-size="14.00" fill="red">1</text>
</g>
<!-- n00 -->
<g id="node12" class="node"><title>n00</title>
<ellipse fill="none" stroke="black" cx="306" cy="-162" rx="18" ry="18"/>
</g>
<!-- n0&#45;&gt;n00 -->
<g id="edge4" class="edge"><title>n0&#45;&gt;n00</title>
<path fill="none" stroke="black" d="M246.541,-220.807C257.485,-210.167 273.552,-194.547 286.226,-182.225"/>
<polygon fill="black" stroke="black" points="288.872,-184.534 293.602,-175.053 283.993,-179.515 288.872,-184.534"/>
<text text-anchor="middle" x="281.5" y="-194.3" font-family="Arial" font-size="14.00" fill="red">0</text>
</g>
<!-- n00&#45;&gt;o -->
<g id="edge5" class="edge"><title>n00&#45;&gt;o</title>
<path fill="none" stroke="black" d="M306,-143.697C306,-135.983 306,-126.712 306,-118.112"/>
<polygon fill="black" stroke="black" points="309.5,-118.104 306,-108.104 302.5,-118.104 309.5,-118.104"/>
<text text-anchor="middle" x="310.5" y="-122.3" font-family="Arial" font-size="14.00" fill="red">1</text>
</g>
<!-- n000 -->
<g id="node13" class="node"><title>n000</title>
<ellipse fill="none" stroke="black" cx="378" cy="-90" rx="18" ry="18"/>
</g>
<!-- n00&#45;&gt;n000 -->
<g id="edge6" class="edge"><title>n00&#45;&gt;n000</title>
<path fill="none" stroke="black" d="M318.541,-148.807C329.485,-138.167 345.552,-122.547 358.226,-110.225"/>
<polygon fill="black" stroke="black" points="360.872,-112.534 365.602,-103.053 355.993,-107.515 360.872,-112.534"/>
<text text-anchor="middle" x="353.5" y="-122.3" font-family="Arial" font-size="14.00" fill="red">0</text>
</g>
<!-- n000&#45;&gt;e -->
<g id="edge7" class="edge"><title>n000&#45;&gt;e</title>
<path fill="none" stroke="black" d="M367.755,-75.0197C365.069,-71.0696 362.287,-66.7006 360,-62.5 357.054,-57.0901 354.254,-51.0969 351.779,-45.3584"/>
<polygon fill="black" stroke="black" points="355.002,-43.9955 347.949,-36.0896 348.533,-46.6684 355.002,-43.9955"/>
<text text-anchor="middle" x="364.5" y="-51.3" font-family="Arial" font-size="14.00" fill="red">1</text>
</g>
<!-- n000&#45;&gt;w -->
<g id="edge8" class="edge"><title>n000&#45;&gt;w</title>
<path fill="none" stroke="black" d="M385.99,-73.6867C390.511,-65.0215 396.267,-53.9885 401.384,-44.1809"/>
<polygon fill="black" stroke="black" points="404.51,-45.7554 406.033,-35.2705 398.304,-42.5174 404.51,-45.7554"/>
<text text-anchor="middle" x="403.5" y="-51.3" font-family="Arial" font-size="14.00" fill="red">0</text>
</g>
<!-- n10&#45;&gt;d -->
<g id="edge10" class="edge"><title>n10&#45;&gt;d</title>
<path fill="none" stroke="black" d="M77.4586,-148.807C66.5148,-138.167 50.4482,-122.547 37.7744,-110.225"/>
<polygon fill="black" stroke="black" points="40.0075,-107.515 30.3977,-103.053 35.1279,-112.534 40.0075,-107.515"/>
<text text-anchor="middle" x="65.5" y="-122.3" font-family="Arial" font-size="14.00" fill="red">0</text>
</g>
<!-- n10&#45;&gt;h -->
<g id="edge11" class="edge"><title>n10&#45;&gt;h</title>
<path fill="none" stroke="black" d="M90,-143.697C90,-135.983 90,-126.712 90,-118.112"/>
<polygon fill="black" stroke="black" points="93.5001,-118.104 90,-108.104 86.5001,-118.104 93.5001,-118.104"/>
<text text-anchor="middle" x="94.5" y="-122.3" font-family="Arial" font-size="14.00" fill="red">1</text>
</g>
<!-- n11&#45;&gt;r -->
<g id="edge13" class="edge"><title>n11&#45;&gt;r</title>
<path fill="none" stroke="black" d="M162,-143.697C162,-135.983 162,-126.712 162,-118.112"/>
<polygon fill="black" stroke="black" points="165.5,-118.104 162,-108.104 158.5,-118.104 165.5,-118.104"/>
<text text-anchor="middle" x="166.5" y="-122.3" font-family="Arial" font-size="14.00" fill="red">0</text>
</g>
<!-- n11&#45;&gt;WS -->
<g id="edge14" class="edge"><title>n11&#45;&gt;WS</title>
<path fill="none" stroke="black" d="M174.541,-148.807C185.485,-138.167 201.552,-122.547 214.226,-110.225"/>
<polygon fill="black" stroke="black" points="216.872,-112.534 221.602,-103.053 211.993,-107.515 216.872,-112.534"/>
<text text-anchor="middle" x="209.5" y="-122.3" font-family="Arial" font-size="14.00" fill="red">1</text>
</g>
</g>
</svg>
